<?xml version="1.0" encoding="utf-8"?>
<!-- Generator: Adobe Illustrator 16.0.0, SVG Export Plug-In . SVG Version: 6.00 Build 0)  -->
<!DOCTYPE svg PUBLIC "-//W3C//DTD SVG 1.1//EN" "http://www.w3.org/Graphics/SVG/1.1/DTD/svg11.dtd">
<svg version="1.1" id="Ebene_1" xmlns="http://www.w3.org/2000/svg" xmlns:xlink="http://www.w3.org/1999/xlink" x="0px" y="0px"
	 width="1273.33px" height="50px" viewBox="0 0 1273.33 50" enable-background="new 0 0 1273.33 50" xml:space="preserve">
<linearGradient id="SVGID_1_" gradientUnits="userSpaceOnUse" x1="-1192.415" y1="1622.5" x2="717.085" y2="1622.5" gradientTransform="matrix(1 0 0 1 873.165 -1597.5)">
	<stop  offset="0.1" style="stop-color:#000000"/>
	<stop  offset="0.5" style="stop-color:#333333"/>
	<stop  offset="0.9" style="stop-color:#000000"/>
</linearGradient>
<rect x="-319.25" fill="url(#SVGID_1_)" width="1909.5" height="50"/>
<rect x="584.182" y="14.5" fill="none" width="104.642" height="21"/>
<g>
	<ellipse fill="#1D1D1B" stroke="#1D1D1B" stroke-miterlimit="10" cx="636.56" cy="25.821" rx="62.311" ry="62.551"/>
	<g>
		<path fill="none" stroke="#1D70B7" stroke-width="0.75" stroke-miterlimit="10" d="M636.561,40.641
			c0,0,34.336,10.175,34.336,37.387"/>
		<path fill="none" stroke="#1D70B7" stroke-width="0.75" stroke-miterlimit="10" d="M636.561,40.641c0,0,10.7,2.691,59.836,2.691"
			/>
		<path fill="none" stroke="#1D70B7" stroke-width="0.75" stroke-miterlimit="10" d="M630.873,12.305
			c-4.976,2.781-8.925,7.44-8.925,13.516c0,8.103,6.477,14.782,14.613,14.819"/>
		<path fill="none" stroke="#1D70B7" stroke-width="0.75" stroke-miterlimit="10" d="M636.366,8.825
			c-1.707,1.22-3.535,2.386-5.494,3.48"/>
		<path fill="none" stroke="#1D70B7" stroke-width="0.75" stroke-miterlimit="10" d="M660.181-32.079
			c0,0-1.693,25.083-23.814,40.904"/>
		<path fill="none" stroke="#FFFFFF" stroke-width="0.75" stroke-miterlimit="10" d="M636.561,40.641c0,0-10.701,2.691-59.836,2.691
			"/>
		<path fill="none" stroke="#FFFFFF" stroke-width="0.75" stroke-miterlimit="10" d="M636.561,40.641
			c0,0-34.335,10.175-34.335,37.387"/>
		<path fill="none" stroke="#FFFFFF" stroke-width="0.75" stroke-miterlimit="10" d="M642.248,12.305
			c5.228,2.294,8.925,7.44,8.925,13.516c0,8.103-6.542,14.819-14.612,14.819"/>
		<path fill="none" stroke="#FFFFFF" stroke-width="0.75" stroke-miterlimit="10" d="M636.366,8.825
			c1.817,1.237,3.774,2.403,5.882,3.48"/>
		<path fill="none" stroke="#FFFFFF" stroke-width="0.75" stroke-miterlimit="10" d="M612.963-32.015c0,0,1.189,25.708,23.403,40.84
			"/>
		
			<line fill="none" stroke="#1D70B7" stroke-width="0.75" stroke-miterlimit="10" x1="631.023" y1="19.085" x2="631.023" y2="32.889"/>
		
			<line fill="none" stroke="#1D70B7" stroke-width="0.75" stroke-miterlimit="10" x1="642.008" y1="19.085" x2="642.008" y2="32.889"/>
		
			<line fill="none" stroke="#1D70B7" stroke-width="0.75" stroke-miterlimit="10" x1="631.023" y1="25.987" x2="642.008" y2="25.987"/>
		
			<line fill="none" stroke="#FFFFFF" stroke-width="0.75" stroke-miterlimit="10" x1="633.762" y1="19.085" x2="633.762" y2="32.889"/>
		<polyline fill="none" stroke="#FFFFFF" stroke-width="0.75" stroke-miterlimit="10" points="642.008,19.085 633.762,25.987 
			642.008,32.889 		"/>
		
			<ellipse fill="none" stroke="#45C0F0" stroke-width="0.75" stroke-miterlimit="10" cx="636.561" cy="25.821" rx="9.396" ry="9.434"/>
	</g>
	<g>
		<polyline fill="none" stroke="#FFFFFF" stroke-width="0.25" stroke-miterlimit="10" points="675.511,74.648 685.418,43.283 
			667.864,64.753 674.165,43.116 662.062,56.316 665.588,42.888 656.8,51.415 659.18,42.64 653.005,48.638 653.728,42.363 
			648.963,46.142 648.963,42.054 644.971,44.046 644.638,41.699 642.27,42.806 642.27,41.464 		"/>
		<polyline fill="none" stroke="#1D70B7" stroke-width="0.25" stroke-miterlimit="10" points="597.943,74.648 588.036,43.283 
			605.59,64.753 599.289,43.116 611.391,56.316 607.867,42.888 616.654,51.415 614.273,42.64 620.448,48.638 619.725,42.363 
			624.492,46.142 624.492,42.054 628.483,44.046 628.816,41.699 631.183,42.806 631.183,41.464 		"/>
		<polyline fill="none" stroke="#45C0F0" stroke-width="0.25" stroke-miterlimit="10" points="638.454,7.258 633.23,6.512 
			640.563,5.512 629.739,3.463 644.682,1.545 625.212,-1.469 650.133,-5.268 619.393,-10.379 655.645,-15.304 614.45,-23.319 
			659.584,-27.989 636.561,-36.729 613.549,-27.461 		"/>
	</g>
	<rect x="574.25" y="21.798" fill="none" width="47.698" height="8.379"/>
	<text transform="matrix(0.9962 0 0 1 578.645 29.833)" fill="#1D70B7" font-family="'Skia-Regular'" font-size="11.222">HYDRO</text>
	<rect x="651.174" y="21.798" fill="none" width="47.063" height="8.379"/>
	<text transform="matrix(0.9962 0 0 1 652.9941 29.833)" fill="#FFFFFF" font-family="'Skia-Regular'" font-size="11.222">KULTUR</text>
</g>
</svg>
