<?xml version="1.0" encoding="utf-8"?>
<!-- Generator: Adobe Illustrator 16.0.0, SVG Export Plug-In . SVG Version: 6.00 Build 0)  -->
<!DOCTYPE svg PUBLIC "-//W3C//DTD SVG 1.1//EN" "http://www.w3.org/Graphics/SVG/1.1/DTD/svg11.dtd">
<svg version="1.1" id="Ebene_1" xmlns="http://www.w3.org/2000/svg" xmlns:xlink="http://www.w3.org/1999/xlink" x="0px" y="0px"
	 width="1910px" height="1910px" viewBox="0 0 1910 1910" enable-background="new 0 0 1910 1910" xml:space="preserve">
<circle fill="#1D1D1B" stroke="#1D1D1B" stroke-miterlimit="10" cx="952.641" cy="954.639" r="945.361"/>
<g>
	<path fill="none" stroke="#1D70B7" stroke-width="10" stroke-miterlimit="10" d="M952.639,1178.617
		c0,0,520.926,153.764,520.926,565.03"/>
	<path fill="none" stroke="#1D70B7" stroke-width="10" stroke-miterlimit="10" d="M952.639,1178.617
		c0,0,162.344,40.662,907.818,40.662"/>
	<path fill="none" stroke="#1D70B7" stroke-width="10" stroke-miterlimit="10" d="M866.346,750.361
		c-75.494,42.025-135.409,112.449-135.409,204.281c0,122.443,98.261,223.395,221.702,223.975"/>
	<path fill="none" stroke="#1D70B7" stroke-width="10" stroke-miterlimit="10" d="M949.69,697.759
		c-25.892,18.446-53.631,36.059-83.345,52.603"/>
	<path fill="none" stroke="#1D70B7" stroke-width="10" stroke-miterlimit="10" d="M1310.992,79.563
		c0,0-25.686,379.097-361.302,618.196"/>
	<path fill="none" stroke="#FFFFFF" stroke-width="10" stroke-miterlimit="10" d="M952.639,1178.617
		c0,0-162.344,40.662-907.816,40.662"/>
	<path fill="none" stroke="#FFFFFF" stroke-width="10" stroke-miterlimit="10" d="M952.639,1178.617
		c0,0-520.925,153.764-520.925,565.03"/>
	<path fill="none" stroke="#FFFFFF" stroke-width="10" stroke-miterlimit="10" d="M1038.938,750.361
		c79.297,34.668,135.405,112.447,135.405,204.281c0,122.443-99.258,223.975-221.705,223.975"/>
	<path fill="none" stroke="#FFFFFF" stroke-width="10" stroke-miterlimit="10" d="M949.693,697.762
		c27.561,18.701,57.256,36.334,89.245,52.6"/>
	<path fill="none" stroke="#FFFFFF" stroke-width="10" stroke-miterlimit="10" d="M594.623,80.521
		c0,0,18.043,388.535,355.07,617.241"/>
	
		<line fill="none" stroke="#1D70B7" stroke-width="10" stroke-miterlimit="10" x1="868.631" y1="852.833" x2="868.631" y2="1061.447"/>
	
		<line fill="none" stroke="#1D70B7" stroke-width="10" stroke-miterlimit="10" x1="1035.268" y1="852.833" x2="1035.268" y2="1061.447"/>
	
		<line fill="none" stroke="#1D70B7" stroke-width="10" stroke-miterlimit="10" x1="868.631" y1="957.141" x2="1035.268" y2="957.141"/>
	
		<line fill="none" stroke="#FFFFFF" stroke-width="10" stroke-miterlimit="10" x1="910.185" y1="852.831" x2="910.185" y2="1061.447"/>
	<polyline fill="none" stroke="#FFFFFF" stroke-width="10" stroke-miterlimit="10" points="1035.268,852.833 910.185,957.141 
		1035.268,1061.447 	"/>
	<circle fill="none" stroke="#45C0F0" stroke-width="10" stroke-miterlimit="10" cx="952.64" cy="954.639" r="142.563"/>
</g>
<g>
	<polyline fill="none" stroke="#FFFFFF" stroke-width="4" stroke-miterlimit="10" points="1543.58,1692.584 1693.889,1218.554 
		1427.562,1543.029 1523.164,1216.036 1339.55,1415.521 1393.022,1212.568 1259.693,1341.455 1295.811,1208.828 1202.137,1299.464 
		1213.102,1204.638 1140.801,1261.757 1140.801,1199.974 1080.23,1230.082 1075.185,1194.617 1039.263,1211.319 1039.263,1191.053 	
		"/>
	<polyline fill="none" stroke="#1D70B7" stroke-width="4" stroke-miterlimit="10" points="366.746,1692.584 216.437,1218.554 
		482.763,1543.029 387.161,1216.036 570.775,1415.521 517.304,1212.568 650.634,1341.455 614.513,1208.828 708.188,1299.464 
		697.222,1204.638 769.524,1261.757 769.524,1199.974 830.099,1230.082 835.141,1194.617 871.062,1211.319 871.062,1191.053 	"/>
	<polyline fill="none" stroke="#45C0F0" stroke-width="4" stroke-miterlimit="10" points="981.362,674.08 902.115,662.799 
		1013.372,647.692 849.146,616.721 1075.834,587.735 780.463,542.189 1158.553,484.785 692.177,407.525 1242.17,333.093 
		617.191,211.948 1301.959,141.371 952.639,9.278 603.514,149.345 	"/>
</g>
<rect x="7.279" y="893.828" fill="none" width="723.658" height="126.629"/>
<text transform="matrix(1 0 0 1 73.9561 1015.2637)" fill="#1D70B7" font-family="'Skia-Regular'" font-size="169.6051">HYDRO</text>
<rect x="1174.344" y="893.828" fill="none" width="714.039" height="126.629"/>
<text transform="matrix(1 0 0 1 1201.9678 1015.2637)" fill="#FFFFFF" font-family="'Skia-Regular'" font-size="169.6051">KULTUR</text>
</svg>
