<?xml version="1.0" encoding="utf-8"?>
<!-- Generator: Adobe Illustrator 16.0.0, SVG Export Plug-In . SVG Version: 6.00 Build 0)  -->
<!DOCTYPE svg PUBLIC "-//W3C//DTD SVG 1.1//EN" "http://www.w3.org/Graphics/SVG/1.1/DTD/svg11.dtd">
<svg version="1.1" id="Ebene_1" xmlns="http://www.w3.org/2000/svg" xmlns:xlink="http://www.w3.org/1999/xlink" x="0px" y="0px"
	 width="1273.33px" height="50px" viewBox="0 0 1273.33 50" enable-background="new 0 0 1273.33 50" xml:space="preserve">
<linearGradient id="SVGID_1_" gradientUnits="userSpaceOnUse" x1="-1192.415" y1="1622.5" x2="717.085" y2="1622.5" gradientTransform="matrix(1 0 0 1 873.165 -1597.5)">
	<stop  offset="0.1" style="stop-color:#000000"/>
	<stop  offset="0.5" style="stop-color:#333333"/>
	<stop  offset="0.9" style="stop-color:#000000"/>
</linearGradient>
<rect x="-319.25" fill="url(#SVGID_1_)" width="1909.5" height="50"/>
<g>
	<rect x="564.759" y="-47.338" fill="#1D1D1B" width="145.465" height="145.465"/>
	<path fill="none" stroke="#1D70B7" stroke-width="2" stroke-miterlimit="10" d="M613.684-26.443
		c-20.828,11.594-37.357,31.023-37.357,56.359c0,33.781,27.109,61.632,61.165,61.793"/>
	<path fill="none" stroke="#FFFFFF" stroke-width="2" stroke-miterlimit="10" d="M661.3-26.443
		c21.878,9.564,37.356,31.023,37.356,56.359c0,33.781-27.384,61.793-61.165,61.793"/>
	<g>
		<line fill="none" stroke="#1D70B7" stroke-width="2" stroke-miterlimit="10" x1="614.314" y1="1.828" x2="614.314" y2="59.382"/>
		<line fill="none" stroke="#1D70B7" stroke-width="2" stroke-miterlimit="10" x1="660.287" y1="1.828" x2="660.287" y2="59.382"/>
		<line fill="none" stroke="#1D70B7" stroke-width="2" stroke-miterlimit="10" x1="614.314" y1="30.604" x2="660.287" y2="30.604"/>
	</g>
	<line fill="none" stroke="#FFFFFF" stroke-width="2" stroke-miterlimit="10" x1="625.778" y1="1.828" x2="625.778" y2="59.382"/>
	<polyline fill="none" stroke="#FFFFFF" stroke-width="2" stroke-miterlimit="10" points="660.287,1.828 625.778,30.604 
		660.287,59.382 	"/>
	<circle fill="none" stroke="#45C0F0" stroke-width="2" stroke-miterlimit="10" cx="637.491" cy="29.916" r="39.331"/>
	<g>
		<path fill="none" stroke="#FFFFFF" stroke-width="2" stroke-miterlimit="10" d="M661.319-26.392c0,0-24.609-9.56-24.688-14.448"/>
		<path fill="none" stroke="#1D70B7" stroke-width="2" stroke-miterlimit="10" d="M613.664-26.392c0,0,23.046-9.683,23.046-14.528"
			/>
	</g>
</g>
</svg>
