<?xml version="1.0" encoding="utf-8"?>
<!-- Generator: Adobe Illustrator 16.0.0, SVG Export Plug-In . SVG Version: 6.00 Build 0)  -->
<!DOCTYPE svg PUBLIC "-//W3C//DTD SVG 1.1//EN" "http://www.w3.org/Graphics/SVG/1.1/DTD/svg11.dtd">
<svg version="1.1" id="Ebene_1" xmlns="http://www.w3.org/2000/svg" xmlns:xlink="http://www.w3.org/1999/xlink" x="0px" y="0px"
	 width="1910px" height="1910px" viewBox="0 0 1910 1910" enable-background="new 0 0 1910 1910" xml:space="preserve">
<rect x="0.885" y="0.789" fill="#1D1D1B" width="1909.213" height="1909.211"/>
<path fill="none" stroke="#1D70B7" stroke-width="12" stroke-miterlimit="10" d="M643.02,275.036
	c-273.365,152.173-490.317,407.181-490.317,739.699c0,443.385,355.804,808.919,802.785,811.027"/>
<path fill="none" stroke="#FFFFFF" stroke-width="12" stroke-miterlimit="10" d="M1267.975,275.036
	c287.144,125.533,490.307,407.181,490.307,739.699c0,443.385-359.417,811.027-802.793,811.027"/>
<g>
	
		<line fill="none" stroke="#1D70B7" stroke-width="12" stroke-miterlimit="10" x1="651.295" y1="646.089" x2="651.295" y2="1401.477"/>
	
		<line fill="none" stroke="#1D70B7" stroke-width="12" stroke-miterlimit="10" x1="1254.688" y1="646.089" x2="1254.688" y2="1401.477"/>
	
		<line fill="none" stroke="#1D70B7" stroke-width="12" stroke-miterlimit="10" x1="651.295" y1="1023.783" x2="1254.688" y2="1023.783"/>
</g>
<line fill="none" stroke="#FFFFFF" stroke-width="12" stroke-miterlimit="10" x1="801.759" y1="646.089" x2="801.759" y2="1401.477"/>
<polyline fill="none" stroke="#FFFFFF" stroke-width="12" stroke-miterlimit="10" points="1254.688,646.089 801.759,1023.783 
	1254.688,1401.477 "/>
<path fill="none" stroke="#45C0F0" stroke-width="12" stroke-miterlimit="10" d="M1471.71,1014.735
	c0,285.103-231.116,516.22-516.222,516.22c-285.097,0-516.216-231.117-516.216-516.22c0-285.113,231.119-516.228,516.216-516.228
	C1240.594,498.508,1471.71,729.622,1471.71,1014.735z"/>
<g>
	<path fill="none" stroke="#FFFFFF" stroke-width="12" stroke-miterlimit="10" d="M1268.231,275.702
		c0,0-322.995-125.474-324.023-189.625"/>
	<path fill="none" stroke="#1D70B7" stroke-width="12" stroke-miterlimit="10" d="M642.753,275.702
		c0,0,302.483-127.085,302.483-190.677"/>
</g>
</svg>
