<?xml version="1.0" encoding="utf-8"?>
<!-- Generator: Adobe Illustrator 16.0.0, SVG Export Plug-In . SVG Version: 6.00 Build 0)  -->
<!DOCTYPE svg PUBLIC "-//W3C//DTD SVG 1.1//EN" "http://www.w3.org/Graphics/SVG/1.1/DTD/svg11.dtd">
<svg version="1.1" id="Ebene_1" xmlns="http://www.w3.org/2000/svg" xmlns:xlink="http://www.w3.org/1999/xlink" x="0px" y="0px"
	 width="500px" height="500px" viewBox="0 0 500 500" enable-background="new 0 0 500 500" xml:space="preserve">
<g>
	<path fill="#038B58" d="M498.825,272.262c-9.982,14.046-19.087,28.836-30.201,41.923c-10.416,12.266-22.68,23.031-34.626,33.915
		c-19.688,17.944-42.428,31.257-66.618,42.179c-21.623,9.761-43.867,17.792-67.516,20.592c-20.104,2.381-40.326,4.101-60.549,5.019
		c-10.143,0.458-20.638-0.448-30.535-2.681c-10.894-2.458-22.165-2.843-32.802-6.32c-10.994-3.592-22.058-7.075-32.789-11.367
		c-10.751-4.295-21.752-8.523-31.532-14.583c-16.664-10.316-33.128-21.197-48.463-33.372c-23.003-18.26-42.118-40.339-57.798-65.275
		c-1.319-2.095-2.755-4.118-4.134-6.174c-2.144-2.814-1.55-4.673,1.709-6.187c2.196-1.017,4.077-2.71,6.1-4.1
		c12.472-6.94,24.943-13.889,37.232-20.73c48.108,73.485,114.117,115.501,203.333,115.097
		c88.627-0.406,154.559-41.749,202.005-115.982c15.053,8.774,30.47,17.764,45.899,26.721c0.327,0.189,0.851,0.029,1.281,0.033
		C498.825,271.398,498.825,271.828,498.825,272.262z"/>
	<path fill="#038B58" d="M100.939,276.438c13.146-12.886,26.039-25.526,38.933-38.167c54.321,54.759,133.777,54.998,186.397,24.251
		c67.03-39.162,89.17-112.584,72.775-175.509c5.187-0.927,10.413-1.485,15.428-2.842c8.274-2.24,16.404-5.02,24.608-7.524
		c12.571-3.837,13.067-3.916,15.659,9.527c2.038,10.593,2.984,21.43,3.877,32.203c2.288,27.473-2.492,53.959-11.528,79.859
		c-7.728,22.145-19.188,42.06-33.694,60.472c-20.642,26.202-46.199,46.072-76.264,60.034c-18.605,8.64-38.127,14.88-58.692,17.001
		c-11.026,1.137-22.13,2.707-33.158,2.423c-26.838-0.687-52.811-5.956-77.733-16.438c-23.717-9.976-44.91-23.54-63.246-41.57
		C103.106,278.981,102.048,277.67,100.939,276.438z"/>
	<path fill="#038B58" d="M228.134,204.856c8.167,0,16.05,0.298,23.904-0.055c28.727-1.287,50.079-14.585,64.402-39.573
		c7.416-12.931,10.654-26.723,9.969-41.447c-0.768-16.58-6.898-31.183-17.025-44.241c-9.39-12.104-21.351-20.421-35.939-25.021
		c-3.671-1.158-4.447-2.852-3.18-7.092C274.902,31.915,278.747,16.165,283.02,0c14.509,3.508,27.67,9.633,39.92,17.93
		c30.642,20.757,49.625,49.646,56.267,85.642c4.761,25.815,2.377,51.592-8.426,76.252c-7.457,17.022-17.617,32.103-31.055,44.594
		c-19.292,17.923-42.093,29.085-68.321,33.841c-17.827,3.232-35.084,2.248-52.521-1.468c-3.807-0.812-4.464-2.836-3.585-5.999
		C219.632,235.19,224.011,219.596,228.134,204.856z"/>
	<path fill="#038B58" d="M303.167,127.713c0.238,31.699-23.354,54.974-53.818,54.888c-30.018-0.085-57.013-22.937-55.019-58.392
		c1.639-29.171,24.748-51.634,55.559-51.243C278.557,73.331,303.868,95.725,303.167,127.713z"/>
</g>
</svg>
